<?xml version="1.0" encoding="UTF-8"?>
<svg version="1.1" xmlns="http://www.w3.org/2000/svg" width="512" height="512">
<path d="M0 0 C11.44416012 8.1125543 18.52681804 18.13130075 22.375 31.68359375 C22.375 32.34359375 22.375 33.00359375 22.375 33.68359375 C23.96368896 33.65217285 23.96368896 33.65217285 25.58447266 33.62011719 C29.53159957 33.5474599 33.47866792 33.50170121 37.42626953 33.46386719 C39.13144894 33.44381006 40.83656006 33.41655718 42.54150391 33.38183594 C44.99919524 33.33305514 47.45597366 33.31056656 49.9140625 33.29296875 C50.67055084 33.27232361 51.42703918 33.25167847 52.20645142 33.23040771 C57.3629761 33.22824483 60.3277923 34.21412362 64.375 37.68359375 C67.003017 41.13755896 66.57807733 44.71741767 66.5 48.93359375 C66.48195313 50.196875 66.46390625 51.46015625 66.4453125 52.76171875 C66.41050781 54.20804688 66.41050781 54.20804688 66.375 55.68359375 C67.58446289 55.66264648 68.79392578 55.64169922 70.04003906 55.62011719 C74.57995497 55.54704535 79.11982024 55.50155258 83.66015625 55.46386719 C85.61532366 55.44390336 87.57043255 55.41672239 89.52539062 55.38183594 C108.34884653 55.05463885 122.94835837 58.0919148 137.203125 71.28515625 C143.45148883 78.18532782 148.22809801 86.59918203 150.375 95.68359375 C150.54609787 96.39620865 150.71719574 97.10882355 150.89347839 97.84303284 C151.47671537 101.28362647 151.53831271 104.65411562 151.55200195 108.13256836 C151.55857315 108.8649321 151.56514435 109.59729584 151.57191467 110.35185242 C151.59154491 112.76321531 151.6032845 115.17451636 151.61328125 117.5859375 C151.61735678 118.41233797 151.6214323 119.23873844 151.62563133 120.09018135 C151.64644388 124.46075308 151.66076879 128.83129382 151.67016602 133.2019043 C151.68124682 137.70894393 151.71567941 142.21549212 151.75533772 146.72235775 C151.78150057 150.19597785 151.78985732 153.66948042 151.79344749 157.14319038 C151.79831087 158.80454405 151.80991784 160.46589256 151.82848549 162.12714958 C151.85288085 164.45357104 151.85191237 166.77871393 151.8449707 169.10522461 C151.86418579 170.12706848 151.86418579 170.12706848 151.88378906 171.16955566 C151.83043564 176.09087671 150.44507571 178.89094741 147.375 182.68359375 C143.66046768 184.54085991 139.41920575 184.26860464 135.375 183.68359375 C132.55075712 181.49336457 130.95991397 179.85342168 129.375 176.68359375 C129.27453422 174.46474199 129.23937949 172.24284485 129.2331543 170.02172852 C129.22794266 168.99440865 129.22794266 168.99440865 129.22262573 167.94633484 C129.21526485 166.45564653 129.20992124 164.96494724 129.20633507 163.47424507 C129.19916128 161.10602631 129.18348368 158.73801376 129.16499329 156.36985779 C129.11259782 149.6350301 129.06464871 142.90030986 129.04907227 136.1652832 C129.03891977 132.04544088 129.00940419 127.92611 128.96775246 123.80647087 C128.95553015 122.24422027 128.95030498 120.68189709 128.95255089 119.1196003 C128.96608155 106.62369788 127.60284127 94.99609412 118.375 85.68359375 C111.29659498 80.13412421 104.32352729 78.39723501 95.4765625 78.26953125 C94.64160248 78.2501651 93.80664246 78.23079895 92.94638062 78.21084595 C90.29768874 78.15139761 87.64895257 78.10480481 85 78.05859375 C83.19659636 78.02038193 81.39321034 77.98132836 79.58984375 77.94140625 C75.18504016 77.84572494 70.7801512 77.76156664 66.375 77.68359375 C66.39348999 79.2142749 66.39348999 79.2142749 66.41235352 80.77587891 C66.42232472 82.13313594 66.43199291 83.49039523 66.44140625 84.84765625 C66.45030884 85.51804932 66.45921143 86.18844238 66.46838379 86.87915039 C66.51589482 96.02921506 64.2790697 102.62085722 58.40234375 109.640625 C52.89223852 115.19319732 46.32808037 119.25339365 38.41295147 119.94086266 C36.84592338 119.94589019 36.84592338 119.94589019 35.24723816 119.95101929 C34.04035843 119.95954926 32.8334787 119.96807922 31.59002686 119.97686768 C30.27923157 119.9759613 28.96843628 119.97505493 27.61791992 119.97412109 C26.21293278 119.98011049 24.80794893 119.98691698 23.40296936 119.99447632 C19.59703892 120.01210242 15.79119848 120.01683028 11.98523116 120.01810789 C9.60413608 120.01953205 7.22306369 120.02380666 4.84197426 120.02910233 C-3.47426169 120.04759185 -11.79043363 120.05577435 -20.10668945 120.05419922 C-27.84341927 120.05299832 -35.5798699 120.07409314 -43.3165291 120.10568655 C-49.97152601 120.13188881 -56.62643195 120.14256485 -63.28148001 120.1412884 C-67.25062269 120.1407799 -71.21951714 120.14640081 -75.18860817 120.1676445 C-78.92422176 120.18709364 -82.65935206 120.18710637 -86.39498329 120.17261124 C-88.40782656 120.1695432 -90.42067023 120.186153 -92.43344116 120.20349121 C-102.93195612 120.13102436 -110.12437327 117.78328037 -117.8359375 110.609375 C-124.64471255 103.28027871 -126.9668695 95.6511328 -126.75 85.80859375 C-126.74097656 85.02484375 -126.73195313 84.24109375 -126.72265625 83.43359375 C-126.69928063 81.5167932 -126.66341653 79.60015184 -126.625 77.68359375 C-131.85428022 77.72807216 -137.0823901 77.79824044 -142.31103516 77.89111328 C-144.08567942 77.91914924 -145.86044453 77.94044925 -147.63525391 77.95458984 C-160.3785307 78.0621583 -171.07246849 78.45303796 -180.8671875 87.61328125 C-185.6087025 93.19773225 -188.74422977 100.22493368 -188.75922108 107.55384159 C-188.76367892 108.56383246 -188.76813676 109.57382334 -188.77272969 110.61442 C-188.77254533 111.72723528 -188.77236097 112.84005057 -188.77217102 113.98658752 C-188.77584771 115.16632533 -188.7795244 116.34606313 -188.7833125 117.56155056 C-188.79244115 120.84192905 -188.79704945 124.12227814 -188.79970181 127.40266716 C-188.80360469 130.93863396 -188.81318316 134.47458627 -188.82191467 138.01054382 C-188.84168135 146.55372124 -188.85174634 155.09689985 -188.86064246 163.64009443 C-188.86502574 167.66393782 -188.87039251 171.68777989 -188.87563133 175.71162224 C-188.89264514 189.08967217 -188.90713846 202.46772128 -188.91438007 215.84578037 C-188.91628995 219.31784122 -188.91821029 222.78990207 -188.92016602 226.26196289 C-188.92064976 227.12492157 -188.9211335 227.98788024 -188.9216319 228.87698918 C-188.92992897 242.85071403 -188.95525973 256.82435319 -188.98774669 270.79804064 C-189.02083403 285.14708308 -189.03883042 299.49608201 -189.04202431 313.84516281 C-189.04418805 321.90055302 -189.05291649 329.95581833 -189.07848549 338.01117134 C-189.10021553 344.87294214 -189.10823169 351.73455771 -189.09851871 358.59635902 C-189.09398039 362.09537552 -189.09583233 365.59407189 -189.11528015 369.09304428 C-189.13296941 372.89287048 -189.12590605 376.69188768 -189.11274719 380.49171448 C-189.12371644 381.58891471 -189.13468568 382.68611494 -189.14598733 383.81656367 C-189.06399452 393.6417308 -186.48576228 401.66499729 -179.6953125 408.92578125 C-173.49270659 414.19214476 -166.30759735 416.80619694 -158.26835632 416.81489563 C-157.62074162 416.81701134 -156.97312691 416.81912706 -156.30588752 416.82130688 C-154.13188661 416.82730701 -151.95794374 416.82630672 -149.78393555 416.82543945 C-148.2267446 416.82847095 -146.66955454 416.83199238 -145.11236572 416.83596802 C-141.7565927 416.84385827 -138.40083032 416.84900241 -135.04504967 416.85225868 C-129.73774841 416.85816751 -124.43051426 416.87470675 -119.12324524 416.89360046 C-117.30641846 416.89993789 -115.48959164 416.90626352 -113.67276478 416.91257763 C-112.76287001 416.91574344 -111.85297525 416.91890925 -110.91550791 416.922171 C-98.55867407 416.96425135 -86.20187143 416.99722389 -73.8449707 417.00952148 C-65.51115071 417.01790055 -57.17749676 417.04038543 -48.84375983 417.07887715 C-44.43371828 417.09864298 -40.02392498 417.11104067 -35.61383629 417.10604286 C-31.46456754 417.10139792 -27.31576935 417.11519309 -23.16659546 417.14305496 C-21.64526222 417.14996934 -20.12388035 417.1500906 -18.6025486 417.14285469 C-16.52200551 417.13395976 -14.44301207 417.1496669 -12.3625946 417.17134094 C-11.19950114 417.1737293 -10.03640768 417.17611765 -8.83806896 417.17857838 C-4.91315702 417.79547795 -2.72728188 419.24925017 0.375 421.68359375 C2.38042966 424.55255119 2.64140265 426.67060593 2.3125 430.12109375 C2.25964844 430.86230469 2.20679688 431.60351562 2.15234375 432.3671875 C0.99963205 435.80215251 -0.85766052 437.38021411 -3.625 439.68359375 C-6.78917217 440.30721283 -6.78917217 440.30721283 -10.42301941 440.30505371 C-11.09402201 440.31144253 -11.76502462 440.31783135 -12.45636064 440.32441378 C-14.69832602 440.33963908 -16.93851692 440.31922151 -19.18041992 440.29882812 C-20.79053329 440.30233028 -22.4006432 440.30798992 -24.01074219 440.31564331 C-28.38104263 440.32989334 -32.75071396 440.31282432 -37.12095428 440.28935814 C-41.70069492 440.26923655 -46.28040974 440.27512968 -50.86018372 440.27746582 C-58.55638989 440.27741224 -66.2523507 440.25765407 -73.94848633 440.22558594 C-82.82973907 440.18875805 -91.71066961 440.17990133 -100.59198874 440.18688345 C-109.14833285 440.19320506 -117.70456713 440.18239932 -126.26088905 440.16291809 C-129.89500819 440.15477092 -133.52907098 440.15202963 -137.16319847 440.15361023 C-141.45197716 440.15449387 -145.74045316 440.14014498 -150.02915192 440.1143837 C-151.59718418 440.10726366 -153.16524875 440.10511804 -154.73329353 440.10850143 C-171.75264929 440.13820086 -184.78076489 436.0151058 -197.3359375 424.09765625 C-205.73667827 415.23817195 -211.73918754 403.98987166 -211.75642776 391.56535912 C-211.76026891 390.52551003 -211.76411005 389.48566094 -211.7680676 388.41430128 C-211.76676787 386.70275623 -211.76676787 386.70275623 -211.76544189 384.95663452 C-211.76989858 383.13674355 -211.76989858 383.13674355 -211.7744453 381.28008711 C-211.78162602 377.91074601 -211.78430465 374.54145589 -211.78504276 371.1721108 C-211.78689404 367.53868492 -211.79444183 363.90527008 -211.80117798 360.27185059 C-211.81475981 352.32538997 -211.820786 344.37893441 -211.82518864 336.43246412 C-211.82795174 331.46938565 -211.83218926 326.50630912 -211.83669281 321.54323196 C-211.84888609 307.79884399 -211.85918476 294.05445758 -211.8625679 280.31006432 C-211.86278747 279.43037227 -211.86300703 278.55068022 -211.86323325 277.64433084 C-211.86345153 276.76254333 -211.86366981 275.88075582 -211.8638947 274.97224748 C-211.86433817 273.18543712 -211.86478473 271.39862676 -211.86523438 269.61181641 C-211.8654558 268.72549831 -211.86567723 267.83918022 -211.86590537 266.92600401 C-211.86985171 252.57083522 -211.88730043 238.21571725 -211.9105939 223.86056809 C-211.93432222 209.11824937 -211.94677045 194.37595612 -211.94793582 179.633618 C-211.94885183 171.35805661 -211.95458545 163.08256141 -211.97275543 154.80701828 C-211.98817652 147.75864018 -211.99326511 140.71034872 -211.98501733 133.66195695 C-211.9811177 130.06780208 -211.98200656 126.47382155 -211.99607468 122.87968826 C-212.01120954 118.97720246 -212.00292655 115.07496033 -211.99249268 111.17245483 C-212.00054908 110.04480914 -212.00860548 108.91716344 -212.01690602 107.75534666 C-211.97414212 100.90585137 -210.98827874 95.11409346 -208.625 88.68359375 C-208.13 87.32621094 -208.13 87.32621094 -207.625 85.94140625 C-201.66447271 73.22871914 -190.89697929 63.27560718 -177.8125 58.37109375 C-173.25106473 56.81112238 -169.15848197 55.55548085 -164.31542969 55.57006836 C-163.0545755 55.57018166 -163.0545755 55.57018166 -161.76824951 55.57029724 C-160.42116913 55.57803917 -160.42116913 55.57803917 -159.046875 55.5859375 C-158.1203009 55.58735245 -157.19372681 55.5887674 -156.23907471 55.59022522 C-153.28435008 55.59581551 -150.32970167 55.60836625 -147.375 55.62109375 C-145.36979276 55.62611 -143.36458433 55.63067269 -141.359375 55.63476562 C-136.44788737 55.64578176 -131.5364566 55.66303975 -126.625 55.68359375 C-126.67140625 54.65878906 -126.7178125 53.63398437 -126.765625 52.578125 C-126.80316011 51.21747719 -126.83955841 49.8567977 -126.875 48.49609375 C-126.90851563 47.82255859 -126.94203125 47.14902344 -126.9765625 46.45507812 C-127.0460224 42.89525831 -126.74181007 40.87302247 -124.859375 37.8203125 C-120.28354114 33.44447138 -116.53710156 33.40511861 -110.359375 33.48828125 C-109.56597717 33.49111115 -108.77257935 33.49394104 -107.95513916 33.49685669 C-105.42827083 33.50802596 -102.90176068 33.53312431 -100.375 33.55859375 C-98.6588593 33.56862777 -96.94271302 33.57775288 -95.2265625 33.5859375 C-91.02590426 33.60795461 -86.8255128 33.64246188 -82.625 33.68359375 C-82.50310303 33.08973877 -82.38120605 32.49588379 -82.25561523 31.8840332 C-79.24748396 17.71684476 -71.1901955 6.83574477 -59.25 -1.31640625 C-40.71046062 -11.96622592 -17.97413421 -11.55068561 0 0 Z M-55.625 25.68359375 C-60.29436337 32.28591054 -61.58602203 39.51832101 -62.75390625 47.36328125 C-63.76436521 51.21480645 -64.44558344 52.33281322 -67.625 54.68359375 C-70.5720526 55.10139806 -73.16051763 55.28837493 -76.109375 55.29296875 C-76.92496887 55.309505 -77.74056274 55.32604126 -78.58087158 55.34307861 C-81.17899097 55.39155958 -83.77652509 55.41292898 -86.375 55.43359375 C-88.13935236 55.46175347 -89.90367746 55.49168091 -91.66796875 55.5234375 C-95.98693097 55.59731817 -100.30556829 55.64689187 -104.625 55.68359375 C-104.69935222 60.43412886 -104.75369691 65.18432262 -104.78979492 69.93530273 C-104.80484876 71.55027164 -104.82529648 73.16519988 -104.85131836 74.7800293 C-104.88785286 77.1060593 -104.90476015 79.43154716 -104.91796875 81.7578125 C-104.93345261 82.47571457 -104.94893646 83.19361664 -104.96488953 83.93327332 C-104.96637402 88.39033515 -104.40127169 91.16912265 -101.625 94.68359375 C-98.43951839 97.6026981 -96.3341411 98.06071525 -92.05250549 98.0712738 C-90.91832184 98.08117844 -89.78413818 98.09108307 -88.61558533 98.10128784 C-87.37547195 98.09678619 -86.13535858 98.09228455 -84.85766602 98.08764648 C-83.54838135 98.09450974 -82.23909668 98.10137299 -80.89013672 98.10844421 C-77.30123838 98.12639002 -73.71258434 98.12520461 -70.1236546 98.11950183 C-67.1266014 98.11641188 -64.12959526 98.12250029 -61.13254875 98.12854058 C-54.06155195 98.14258897 -46.99067595 98.14102207 -39.91967773 98.12963867 C-32.62709303 98.11815791 -25.3348761 98.13223142 -18.04233986 98.15903515 C-11.77893693 98.18119358 -5.51564943 98.1878292 0.74778992 98.18195873 C4.48766991 98.17858815 8.22731417 98.18101061 11.96716118 98.19820976 C16.13776811 98.2165527 20.30765971 98.20249047 24.47827148 98.18530273 C25.71636063 98.1949707 26.95444977 98.20463867 28.23005676 98.21459961 C29.36706024 98.20476547 30.50406372 98.19493134 31.67552185 98.18479919 C33.15412013 98.18448527 33.15412013 98.18448527 34.66258907 98.184165 C38.15988416 97.53874459 39.83645788 96.12757439 42.375 93.68359375 C44.50094117 89.14511251 44.61003473 85.06293497 44.5703125 80.09765625 C44.5674826 79.3958725 44.56465271 78.69408875 44.56173706 77.97103882 C44.55062512 75.75004347 44.52553834 73.5294653 44.5 71.30859375 C44.48995854 69.7942767 44.48083473 68.27995326 44.47265625 66.765625 C44.45071554 63.07148117 44.41624875 59.37757824 44.375 55.68359375 C43.27510742 55.67424805 42.17521484 55.66490234 41.04199219 55.65527344 C36.95645834 55.61536438 32.87167681 55.54960371 28.78662109 55.47607422 C27.01946689 55.44786978 25.25218666 55.42665257 23.48486328 55.41259766 C20.94237778 55.39116017 18.40140662 55.34450872 15.859375 55.29296875 C15.07069031 55.29174011 14.28200562 55.29051147 13.46942139 55.28924561 C9.87336836 55.19348259 7.78591792 54.99767088 4.88769531 52.7824707 C3.20176049 50.44322253 2.74938633 48.96175005 2.375 46.12109375 C0.64826355 36.01373124 -2.60734873 26.53444729 -10.80078125 19.9296875 C-25.93483209 9.37400498 -43.53580989 11.91867432 -55.625 25.68359375 Z " fill="#FFFFFF" transform="translate(211.625,8.31640625)"/>
<path d="M0 0 C0.87269531 0.65097656 1.74539063 1.30195313 2.64453125 1.97265625 C15.64949617 12.15956142 27.19995722 23.99563085 36 38 C36.38881348 38.61423828 36.77762695 39.22847656 37.17822266 39.86132812 C55.75598885 69.71435167 62.780267 108.86347874 54.82958984 143.29980469 C54.25826086 145.54591645 53.63884232 147.77224217 53 150 C52.80164551 150.73605469 52.60329102 151.47210938 52.39892578 152.23046875 C47.38159735 170.52755192 38.3909841 187.64091794 26 202 C25.21496094 202.91136719 24.42992187 203.82273437 23.62109375 204.76171875 C4.12012229 226.83642248 -19.54911067 241.21681614 -48 249 C-49.00933594 249.28593018 -49.00933594 249.28593018 -50.0390625 249.57763672 C-69.37199056 254.79374823 -95.79079523 254.50654768 -115 249 C-115.81291504 248.76893555 -116.62583008 248.53787109 -117.46337891 248.29980469 C-141.12188282 241.36834693 -161.35692644 230.24436003 -179 213 C-180.27617187 211.81664062 -180.27617187 211.81664062 -181.578125 210.609375 C-203.0404378 190.22692699 -215.56417347 161.99256219 -220 133 C-220.13019531 132.18402344 -220.26039063 131.36804688 -220.39453125 130.52734375 C-223.02483075 110.08114901 -220.63114929 88.46254287 -214 69 C-213.65324219 67.96230469 -213.30648437 66.92460937 -212.94921875 65.85546875 C-200.26933039 30.51736063 -174.34703058 3.02048998 -140.6875 -13.1875 C-95.81865172 -34.09304849 -39.95682234 -29.92386841 0 0 Z M-157 24 C-157.81984375 24.68707031 -158.6396875 25.37414062 -159.484375 26.08203125 C-180.88125436 44.52188846 -194.54437081 71.00117589 -198 99 C-200.17302746 131.96711392 -193.35358679 162.75414875 -171.5 188.25 C-150.40590367 211.45350597 -123.19518183 228.12805871 -91.18994141 230.18017578 C-55.94535409 231.75677348 -26.57554995 220.85398574 -0.29296875 197.60546875 C22.05548986 176.38323168 34.53259795 146.90775639 35.40234375 116.27392578 C35.76919766 84.06720984 24.16326154 54.89495526 2.01855469 31.61791992 C-19.81074867 9.33358829 -49.40334428 -3.61763398 -80.79003906 -4.02734375 C-108.71278374 -3.68185685 -135.84638395 5.61316486 -157 24 Z " fill="#FFFFFF" transform="translate(455,260)"/>
<path d="M0 0 C1.33894177 -0.00551503 1.33894177 -0.00551503 2.70493287 -0.01114148 C5.70809476 -0.02219021 8.71122206 -0.02602416 11.71440125 -0.02983093 C13.8627178 -0.0360946 16.01103326 -0.04274132 18.15934753 -0.04974365 C24.00442389 -0.06716038 29.84949207 -0.07770692 35.69458795 -0.08594918 C39.34452154 -0.09109714 42.99445259 -0.09717291 46.64438438 -0.10346031 C58.05886766 -0.12251291 69.47334445 -0.1367448 80.88784057 -0.14507228 C94.07417444 -0.15485073 107.26034072 -0.18118595 120.44661552 -0.22157317 C130.6326742 -0.25170341 140.81868475 -0.26653816 151.00478715 -0.26985329 C157.09157789 -0.27220699 163.1781896 -0.28120926 169.26493263 -0.30631447 C174.98999005 -0.32954648 180.71474993 -0.33384795 186.43984222 -0.32355309 C188.54172186 -0.32305646 190.6436159 -0.32941414 192.74545097 -0.34310913 C195.61402528 -0.36075513 198.4815233 -0.3537577 201.35009766 -0.34057617 C202.18269193 -0.35154542 203.01528619 -0.36251466 203.87311059 -0.37381631 C209.15930902 -0.31513241 212.18305413 0.6252003 216.36552429 4.14717102 C218.83335589 7.84891841 219.04625161 10.85210577 218.36552429 15.14717102 C215.36552429 20.64717102 215.36552429 20.64717102 212.36552429 22.14717102 C209.46688059 22.25190312 206.59189986 22.29496468 203.69271851 22.29434204 C202.78390531 22.29801873 201.87509211 22.30169542 200.93873912 22.30548352 C197.87485916 22.31655031 194.81101308 22.32036925 191.74711609 22.32417297 C189.55791617 22.3304353 187.36871732 22.33708189 185.17951965 22.34408569 C179.21875237 22.36151553 173.25799311 22.3720526 167.29720664 22.38029122 C163.57609463 22.38543657 159.85498513 22.39151248 156.13387489 22.39780235 C145.16766003 22.41576518 134.20144978 22.43014419 123.23522281 22.43797876 C121.22795675 22.43941727 119.22069071 22.44086864 117.21342468 22.44233704 C116.54896014 22.44282078 115.8844956 22.44330452 115.19989578 22.44380292 C104.43334776 22.45210518 93.66691079 22.47744526 82.90041127 22.50991771 C71.84992914 22.54297533 60.79950634 22.56066577 49.7489751 22.56419533 C43.54315428 22.56655031 37.33750894 22.57556905 31.13173485 22.60065651 C25.29506993 22.62387026 19.45869688 22.6281974 13.62199783 22.61789513 C11.47777272 22.61739804 9.33353356 22.62376899 7.18935204 22.63745117 C4.26564179 22.65506621 1.3429908 22.64811506 -1.58071899 22.63491821 C-2.43247202 22.64588746 -3.28422504 22.6568567 -4.16178876 22.66815835 C-8.18831443 22.62417319 -10.15563706 22.45097061 -13.6378355 20.24168682 C-17.13073408 16.57756585 -17.02535745 13.5327038 -16.98994446 8.63154602 C-16.63447571 6.14717102 -16.63447571 6.14717102 -14.32197571 3.08467102 C-9.68970384 -0.25487381 -5.4929904 -0.00120662 0 0 Z " fill="#FFFFFF" transform="translate(80.63447570800781,169.8528289794922)"/>
<path d="M0 0 C2.92564438 1.33761194 3.82732399 2.39278879 6 5 C7.47959264 9.07096959 7.45870779 11.87669578 5.81640625 15.8984375 C3.8263971 19.29643162 1.59709444 21.84519911 -1.125 24.6875 C-4.71984203 28.49572095 -8.16373319 32.34379525 -11.4375 36.4375 C-15.28110057 41.21621628 -19.36960164 45.69157687 -23.55834961 50.16381836 C-26.67553945 53.51099327 -29.63573798 56.93005023 -32.5 60.5 C-36.32187458 65.26349585 -40.39325907 69.71760596 -44.56518555 74.1706543 C-47.62209222 77.4523834 -50.517114 80.80115826 -53.3125 84.3125 C-57.30875699 89.28938832 -61.57971762 93.9661476 -65.9375 98.625 C-66.60112549 99.33696533 -67.26475098 100.04893066 -67.94848633 100.7824707 C-68.57263428 101.444646 -69.19678223 102.10682129 -69.83984375 102.7890625 C-70.40050537 103.38412598 -70.96116699 103.97918945 -71.53881836 104.59228516 C-74.30757125 107.25972529 -77.02122749 107.46467403 -80.80793762 107.4005127 C-88.37089637 106.01868113 -95.0257338 97.28093281 -100.20703125 92.09375 C-101.0542424 91.25082397 -101.90145355 90.40789795 -102.77433777 89.53942871 C-104.5525341 87.76694497 -106.32815688 85.99187599 -108.10131836 84.21435547 C-110.81300741 81.49949199 -113.53779665 78.79826691 -116.26367188 76.09765625 C-117.99560173 74.36799825 -119.72674897 72.63755617 -121.45703125 70.90625 C-122.6757769 69.70131897 -122.6757769 69.70131897 -123.91914368 68.4720459 C-128.56579705 63.78704526 -132.4503149 59.76926923 -133.4375 53 C-132.8708265 49.11423889 -131.47260877 47.02207739 -129 44 C-125.21058903 41.58783293 -122.43725866 41.91941149 -118.12890625 42.515625 C-115.47981924 43.11835305 -113.84339291 43.99631206 -112 46 C-112 46.66 -112 47.32 -112 48 C-111.34 48 -110.68 48 -110 48 C-110 48.66 -110 49.32 -110 50 C-109.34 50 -108.68 50 -108 50 C-108 50.66 -108 51.32 -108 52 C-107.34 52 -106.68 52 -106 52 C-106 52.66 -106 53.32 -106 54 C-105.34 54 -104.68 54 -104 54 C-104 54.66 -104 55.32 -104 56 C-103.34 56 -102.68 56 -102 56 C-102 56.66 -102 57.32 -102 58 C-101.34 58 -100.68 58 -100 58 C-98.6953125 59.328125 -98.6953125 59.328125 -97.125 61.25 C-92.10297282 67.17833782 -86.52998282 72.55174107 -81 78 C-77.18371168 76.45427224 -75.02974257 74.11228755 -72.3125 71.0625 C-71.87534668 70.57378418 -71.43819336 70.08506836 -70.98779297 69.58154297 C-68.10777101 66.33514308 -65.3489711 63.00391497 -62.625 59.625 C-58.75781137 54.8285929 -54.65019284 50.3295854 -50.44189453 45.83642578 C-47.32460664 42.48918215 -44.36433518 39.07004094 -41.5 35.5 C-37.68411208 30.74396578 -33.62221244 26.2934691 -29.45239258 21.85131836 C-26.20434545 18.36952403 -23.15621228 14.789827 -20.1875 11.0625 C-9.36573902 -2.2267002 -9.36573902 -2.2267002 0 0 Z " fill="#FFFFFF" transform="translate(431,320)"/>
<path d="M0 0 C1.29964691 -0.0071553 2.59929382 -0.01431061 3.93832397 -0.02168274 C5.38191199 -0.02452297 6.82550027 -0.02723471 8.26908875 -0.02983093 C9.7868719 -0.03609626 11.30465353 -0.04274312 12.82243347 -0.04974365 C17.80944248 -0.07077618 22.79645177 -0.08114447 27.78349304 -0.09111023 C29.50047001 -0.09515792 31.21744681 -0.09927485 32.93442345 -0.10346031 C41.0000594 -0.12250928 49.0656862 -0.13674159 57.13134032 -0.14507228 C66.4418309 -0.15484757 75.75208391 -0.18117583 85.06249076 -0.22157317 C92.25919049 -0.25172791 99.45582209 -0.2665405 106.65258378 -0.26985329 C110.9508828 -0.2722043 115.24892794 -0.28117133 119.54715919 -0.30631447 C123.59130401 -0.32958945 127.63502768 -0.33383092 131.67922211 -0.32355309 C133.16188393 -0.32305749 134.64456645 -0.32938508 136.12716484 -0.34310913 C138.15452357 -0.36082302 140.18206511 -0.35133825 142.20947266 -0.34057617 C143.34306874 -0.34296453 144.47666483 -0.34535288 145.64461231 -0.34781361 C149.5580584 0.26702038 151.71439815 1.6980721 154.79521179 4.14717102 C157.26304339 7.84891841 157.47593911 10.85210577 156.79521179 15.14717102 C153.79521179 20.64717102 153.79521179 20.64717102 150.79521179 22.14717102 C148.71613277 22.24994314 146.63369705 22.28670089 144.55209351 22.29434204 C143.58089474 22.29985707 143.58089474 22.29985707 142.59007579 22.30548352 C140.41064379 22.31653661 138.23125944 22.32036692 136.05180359 22.32417297 C134.49313708 22.33043638 132.93447208 22.33708306 131.37580872 22.34408569 C127.13399637 22.36150626 122.89219531 22.37205023 118.65035605 22.38029122 C116.00130565 22.38543891 113.35225876 22.39151473 110.70321083 22.39780235 C102.41812575 22.41685698 94.13304961 22.4310878 85.84794682 22.43941432 C76.27821679 22.44919019 66.70871784 22.4755176 57.13906926 22.51591522 C49.74622864 22.54605468 42.35345434 22.56088111 34.96055347 22.56419533 C30.54322587 22.56654822 26.12614508 22.5755394 21.70888329 22.60065651 C17.55313259 22.6239046 13.39779177 22.62818379 9.24199295 22.61789513 C7.71698584 22.61739886 6.19195878 22.62374601 4.66701317 22.63745117 C2.58394325 22.65512439 0.50235159 22.64808866 -1.58071899 22.63491821 C-2.74603307 22.63730657 -3.91134714 22.63969492 -5.11197376 22.64215565 C-8.85978256 22.04234348 -10.51374658 20.77060158 -13.20478821 18.14717102 C-15.06334102 14.43006539 -14.7838726 10.19439821 -14.20478821 6.14717102 C-10.07601419 0.67933515 -6.57119331 0.02479712 0 0 Z " fill="#FFFFFF" transform="translate(78.20478820800781,233.8528289794922)"/>
<path d="M0 0 C0.93928345 -0.00571014 1.87856689 -0.01142029 2.84631348 -0.01730347 C4.38927597 -0.01898026 4.38927597 -0.01898026 5.96340942 -0.02069092 C7.5906192 -0.02813828 7.5906192 -0.02813828 9.2507019 -0.03573608 C12.84651316 -0.0503652 16.44228031 -0.05716063 20.03811646 -0.06268311 C22.53291831 -0.0684335 25.02772015 -0.07419124 27.52252197 -0.07995605 C32.08720322 -0.08912385 36.65187179 -0.09542359 41.2165612 -0.09845281 C47.26343136 -0.10248791 53.31014635 -0.11477432 59.35696411 -0.14080811 C65.84432611 -0.16831005 72.33155485 -0.18119899 78.81897354 -0.18312836 C81.29333734 -0.18615865 83.7677002 -0.19419979 86.2420311 -0.20731354 C89.70139809 -0.22434052 93.16026769 -0.22250182 96.61965942 -0.21600342 C97.64425262 -0.2252182 98.66884583 -0.23443298 99.7244873 -0.243927 C104.78234141 -0.21411721 108.31937495 -0.17247354 112.42092896 3.14044189 C113.01003052 3.59677002 113.59913208 4.05309814 114.20608521 4.52325439 C116.33484464 7.35703704 115.87898583 10.27431254 115.78421021 13.69122314 C115.2793591 17.09489673 113.93411388 18.84900858 111.42092896 21.14044189 C109.01428936 22.34376169 107.49877175 22.27404958 104.81025696 22.28761292 C103.83869156 22.29476822 102.86712616 22.30192352 101.86611938 22.30929565 C100.79647949 22.31198456 99.7268396 22.31467346 98.62478638 22.31744385 C96.93927422 22.32730064 96.93927422 22.32730064 95.2197113 22.33735657 C91.48860616 22.35712224 87.7575413 22.36875888 84.02639771 22.37872314 C82.75469538 22.38279867 81.48299305 22.3868742 80.17275429 22.39107323 C74.13767141 22.40979291 68.10261305 22.42435615 62.06750888 22.4326852 C55.10184316 22.44245728 48.13649526 22.46877547 41.17094153 22.50918609 C35.13746051 22.54298758 29.10413376 22.55483041 23.07055092 22.55888939 C20.5040706 22.56376977 17.93759403 22.5754247 15.37117577 22.59392738 C11.7822762 22.61819517 8.1942111 22.61737604 4.60525513 22.6104126 C3.54168793 22.62322266 2.47812073 22.63603271 1.38232422 22.64923096 C-5.82519988 22.59816314 -5.82519988 22.59816314 -9.71559143 20.23606873 C-13.0285604 16.5103791 -12.96955761 13.47128219 -12.93453979 8.62481689 C-12.57907104 6.14044189 -12.57907104 6.14044189 -10.26657104 3.07794189 C-6.73727641 0.5335667 -4.23652837 0.01543131 0 0 Z " fill="#FFFFFF" transform="translate(76.57907104492188,297.85955810546875)"/>
</svg>
